<?xml version="1.0" encoding="UTF-8" standalone="no"?>
<!-- Created with Inkscape (http://www.inkscape.org/) -->

<svg
   width="210mm"
   height="297mm"
   viewBox="0 0 210 297"
   version="1.1"
   id="svg1"
   inkscape:version="1.4.2 (ebf0e940, 2025-05-08)"
   sodipodi:docname="angryfaic.svg"
   xmlns:inkscape="http://www.inkscape.org/namespaces/inkscape"
   xmlns:sodipodi="http://sodipodi.sourceforge.net/DTD/sodipodi-0.dtd"
   xmlns="http://www.w3.org/2000/svg"
   xmlns:svg="http://www.w3.org/2000/svg">
  <sodipodi:namedview
     id="namedview1"
     pagecolor="#ffffff"
     bordercolor="#000000"
     borderopacity="0.25"
     inkscape:showpageshadow="2"
     inkscape:pageopacity="0.0"
     inkscape:pagecheckerboard="0"
     inkscape:deskcolor="#d1d1d1"
     inkscape:document-units="mm"
     inkscape:zoom="1.3216571"
     inkscape:cx="357.88405"
     inkscape:cy="171.37577"
     inkscape:window-width="3440"
     inkscape:window-height="1298"
     inkscape:window-x="0"
     inkscape:window-y="25"
     inkscape:window-maximized="1"
     inkscape:current-layer="layer1"
     showgrid="false" />
  <defs
     id="defs1" />
  <g
     inkscape:label="Lager 1"
     inkscape:groupmode="layer"
     id="layer1">
    <circle
       style="fill:none;stroke:#000000;stroke-width:0.7;stroke-linecap:round;stroke-linejoin:round;stroke-dasharray:none"
       id="path1"
       cx="91.303703"
       cy="66.389824"
       r="15.146506" />
    <path
       style="fill:none;stroke:#000000;stroke-width:1;stroke-linecap:round;stroke-linejoin:round;stroke-dasharray:none"
       id="path1-9"
       sodipodi:type="arc"
       sodipodi:cx="91.303703"
       sodipodi:cy="86.190079"
       sodipodi:rx="15.146506"
       sodipodi:ry="15.146506"
       sodipodi:start="3.4906585"
       sodipodi:end="5.9341195"
       sodipodi:arc-type="arc"
       d="m 77.070643,81.009669 a 15.146506,15.146506 0 0 1 14.23306,-9.966097 15.146506,15.146506 0 0 1 14.233057,9.966097"
       sodipodi:open="true" />
    <path
       style="fill:none;stroke:#000000;stroke-width:1.1;stroke-linecap:round;stroke-linejoin:round;stroke-dasharray:none"
       d="M 91.303701,63.214824 80.593506,52.504626"
       id="path2" />
    <path
       style="fill:none;stroke:#000000;stroke-width:1.1;stroke-linecap:round;stroke-linejoin:round;stroke-dasharray:none"
       d="M 91.303701,63.214824 102.0139,52.504626"
       id="path2-4" />
    <path
       style="fill:#000000;stroke:none;stroke-width:0.499999;stroke-linecap:round;stroke-linejoin:round;stroke-dasharray:none"
       id="path8"
       d="m 40.715408,22.92305 c -0.698195,0.228734 -1.386863,0.482347 -2.076505,0.737117 -0.198385,0.06939 -0.399471,0.131478 -0.595149,0.208158 -0.27097,0.106185 -0.533762,0.232395 -0.804105,0.340167 -1.13496,0.452448 -2.281489,0.862434 -3.399962,1.356016 -0.743363,0.434836 -1.770748,0.784566 -2.448703,1.320632 -0.310282,0.245343 -0.458499,0.472197 -0.698405,0.779159 -0.550693,0.87599 -0.960723,1.827479 -1.376397,2.771896 -0.549545,1.211149 -1.12776,2.406224 -1.639983,3.634113 -0.55999,1.179859 -0.92107,2.435757 -1.221414,3.702468 -0.101102,0.674137 -0.155083,1.362832 -0.03567,2.039768 0.168003,0.95236 0.552514,1.861008 0.888138,2.76188 0.113535,0.28666 0.227359,0.573204 0.340608,0.859978 0.09716,0.246022 0.18315,0.496707 0.290603,0.738409 0.445196,1.001424 1.059045,1.925699 1.653354,2.842819 0.295109,0.415491 0.572598,0.843684 0.9304,1.209743 1.176319,1.203468 3.271549,2.055683 4.441825,2.719359 2.33808,0.770244 4.771993,1.164045 7.192507,1.573355 0.500608,0.05657 0.999014,0.138221 1.501823,0.169712 1.679302,0.10518 3.768539,0.02806 5.41475,-0.365562 0.33105,-0.07915 0.649431,-0.204142 0.974146,-0.306213 0.288356,-0.131693 0.594167,-0.230446 0.865068,-0.395081 0.43048,-0.261614 1.61435,-1.256583 1.961955,-1.542235 1.021656,-0.839576 2.042951,-1.678871 3.053982,-2.53121 0.903295,-0.811091 1.920719,-1.501476 2.669672,-2.470283 0.306015,-0.395845 0.642662,-0.941974 0.912738,-1.364051 0.119087,-0.243454 0.257371,-0.47842 0.357265,-0.730358 0.10882,-0.274463 0.179758,-0.562481 0.267152,-0.844498 0.280538,-0.905261 0.503127,-1.801383 0.659217,-2.735823 0.08227,-0.918022 0.243007,-1.834192 0.115454,-2.752786 -0.14937,-0.714002 -0.367456,-1.433541 -0.716179,-2.078572 -0.131482,-0.243199 -0.683869,-1.100637 -0.836182,-1.339553 -0.862369,-1.474536 -2.212641,-2.481019 -3.608421,-3.40918 -1.919566,-1.148311 -3.836607,-2.329503 -5.882881,-3.242308 -0.215334,-0.09606 -1.15733,-0.460532 -1.381988,-0.548164 -1.509075,-0.512036 -3.053291,-0.909537 -4.566036,-1.408754 -1.243071,-0.405505 -2.485051,-0.821254 -3.751209,-1.149947 -0.585619,-0.161123 -1.187236,-0.19753 -1.790865,-0.200708 -0.474509,0.01118 -0.949242,-1.92e-4 -1.423701,-0.0093 -0.134454,-0.006 -0.268984,-0.0047 -0.403485,-0.0082 0,0 3.218416,2.33571 3.218416,2.33571 v 0 c 0.124817,-0.0048 0.249695,-0.0054 0.374332,-0.01462 0.457198,-0.01782 0.915356,-0.03492 1.372661,-0.01117 0.56701,0.02641 1.131332,0.08452 1.682668,0.227218 1.21461,0.302498 2.413135,0.669301 3.600678,1.063983 1.530159,0.485409 3.080398,0.910187 4.590521,1.456896 0.682765,0.271785 1.350007,0.559215 2.010534,0.88175 0.236461,0.115465 0.930346,0.490109 0.70767,0.349885 -0.96375,-0.60689 -3.763933,-2.193731 -1.729168,-1.036875 1.406578,0.891304 2.707674,1.81366 3.616629,3.245202 0.645689,0.997537 1.289659,2.005385 1.472573,3.204675 0.138123,0.894366 0.116221,1.799125 0.01709,2.698181 -0.171677,1.44816 -0.452898,2.911197 -1.13987,4.21213 -0.354933,0.57087 -0.46569,0.785175 -0.887179,1.315654 -0.734918,0.924949 -1.635297,1.708547 -2.483501,2.523905 -1.561971,1.395743 -3.217881,2.918497 -5.069674,3.918474 -0.263726,0.142417 -0.544983,0.249661 -0.817477,0.374489 -0.305327,0.09812 -0.60569,0.213307 -0.915985,0.294362 -2.190327,0.572172 -4.502179,0.537368 -6.7222,0.186023 -2.520225,-0.410776 -5.062466,-0.888024 -7.426034,-1.886172 5.229622,3.112137 2.951316,1.911945 2.010098,1.091761 -0.403977,-0.352026 -0.711153,-0.784173 -1.053293,-1.193165 -0.980729,-1.374252 -1.836881,-2.817834 -2.422782,-4.409118 -0.561702,-1.464283 -1.09728,-2.953612 -0.809223,-4.544409 0.250198,-1.26043 0.656236,-2.472634 1.171472,-3.649985 0.527926,-1.215578 1.034939,-2.441123 1.685674,-3.598526 0.42255,-0.906185 0.803473,-1.843371 1.347695,-2.683955 0.09483,-0.120748 0.179649,-0.250071 0.284482,-0.362244 0.711415,-0.761216 1.72456,-1.189188 2.621267,-1.67341 1.594832,-0.693798 3.216124,-1.327037 4.890103,-1.804593 0.734375,-0.226524 1.470173,-0.456567 2.226829,-0.596529 z" />
    <path
       style="fill:#000000;stroke:none;stroke-width:0.499999;stroke-linecap:round;stroke-linejoin:round;stroke-dasharray:none"
       id="path14"
       d="m 32.679058,19.900308 c 1.132755,1.862074 2.102942,3.817498 3.103763,5.752074 1.271894,2.433998 2.350643,4.957637 3.362013,7.508513 0.38154,0.991757 0.741547,1.99117 1.105897,2.989218 0.124087,0.249449 0.158877,0.524399 0.231505,0.787897 0.477846,1.320552 0.142209,0.44054 3.629496,1.852494 0.102325,0.04143 0.154668,-0.157896 0.238025,-0.23027 0.125627,-0.109077 0.258019,-0.210124 0.388326,-0.313565 0.707705,-0.56179 0.637111,-0.49819 1.4688,-1.11955 2.85822,-2.036675 5.841608,-3.884226 8.926497,-5.55498 2.392259,-1.260523 4.864372,-2.364923 7.381128,-3.35126 0.93567,-0.296275 1.823974,-0.713666 2.733633,-1.075987 0.285417,-0.150854 0.153228,-0.07651 0.39788,-0.220673 0,0 -3.298057,-2.124463 -3.298057,-2.124463 v 0 c -0.198962,0.134397 -0.08988,0.06601 -0.32942,0.201622 -0.831133,0.42151 -1.67472,0.815143 -2.518611,1.210907 -2.393691,1.124187 -4.736216,2.35718 -7.071672,3.596459 -3.091926,1.754896 -6.117524,3.622304 -9.187032,5.415925 -1.477679,0.848016 -0.520086,0.289481 -1.690372,0.988296 -0.155792,0.09303 -0.310878,0.187309 -0.468469,0.277257 -0.08745,0.04991 -0.350179,0.08627 -0.266478,0.142229 2.082306,1.392269 4.558165,2.425118 3.300413,1.899158 -0.02514,-0.0158 -0.10545,-0.06213 -0.118377,-0.08886 -0.0983,-0.203221 -0.06827,-0.483082 -0.219422,-0.67078 -0.501774,-1.033359 -0.9368,-2.099336 -1.431584,-3.13622 -1.119894,-2.548736 -2.223185,-5.106352 -3.481337,-7.590916 -0.904139,-1.815507 -1.834544,-3.62867 -2.583307,-5.514311 z" />
    <path
       style="fill:#000000;stroke:none;stroke-width:0.499999;stroke-linecap:round;stroke-linejoin:round;stroke-dasharray:none"
       id="path15"
       d="m 56.72774,52.660444 c -0.782944,-0.976236 -1.554482,-1.961026 -2.347071,-2.929674 -0.791726,-0.918326 -1.572183,-1.846119 -2.3828,-2.74793 -0.561957,-0.692399 -1.244616,-1.238221 -1.956015,-1.766544 -1.697886,-1.265555 -3.549631,-2.330937 -5.437428,-3.283323 -0.701487,-0.376698 -1.485961,-0.542245 -2.249837,-0.741312 -1.511411,-0.431464 -3.084869,-0.472657 -4.642749,-0.563078 -1.360525,-0.03319 -2.725211,0.03552 -4.073456,0.222147 -0.964166,0.17114 -1.893414,0.483356 -2.834143,0.746273 -0.532304,0.157152 -1.046652,0.385831 -1.515266,0.68318 -0.09464,0.06005 -0.197988,0.109548 -0.280535,0.185365 -0.101732,0.09343 -0.177766,0.211465 -0.266647,0.317198 -0.265049,0.351711 -0.548182,0.727668 -0.670002,1.159814 -0.07324,0.259811 -0.110593,0.528458 -0.170749,0.791607 -0.129185,0.563089 -0.280201,1.123524 -0.500327,1.658504 -0.11327,0.266798 -0.233971,0.532611 -0.299135,0.816115 -0.03464,0.151823 -0.04834,0.307885 -0.0459,0.463397 -0.03133,0.186893 0.02397,0.329361 0.0947,0.494776 0.03863,0.100975 0.08091,0.191995 0.09264,0.300246 0.01662,0.103481 0.0182,0.208444 0.01561,0.313256 -0.0034,0.120497 2.01e-4,0.241107 -5.29e-4,0.361672 -0.0029,0.112366 -0.0048,0.225055 -2.65e-4,0.337418 -0.0016,0.121156 0.0024,0.242009 -0.0034,0.36312 0.0021,0.108074 0.0016,0.216048 0.0016,0.324109 0,0 3.543009,1.805252 3.543009,1.805252 v 0 c 1.33e-4,-0.107511 -5.29e-4,-0.21495 0.0016,-0.322474 -0.0055,-0.122256 -0.0021,-0.24424 -0.0034,-0.366538 0.0047,-0.112247 0.0024,-0.224827 -6.1e-5,-0.337095 -2.64e-4,-0.120031 0.0037,-0.240064 0.0016,-0.360048 -0.0019,-0.114808 0.0065,-0.229253 0.0082,-0.343516 -0.01079,-0.13738 -0.0034,-0.276617 -0.06234,-0.404093 -0.01968,-0.05939 -0.02662,-0.123597 -0.05446,-0.179634 -0.04801,-0.09666 -0.127288,-0.01386 -0.09709,-0.184509 0.0021,-0.135081 -0.01,-0.270468 0.0027,-0.405432 0.03095,-0.267311 0.120398,-0.521057 0.222128,-0.769112 0.215694,-0.561896 0.312071,-1.16174 0.450498,-1.745356 0.168786,-0.632248 0.312317,-1.271492 0.757955,-1.776907 0.535212,-0.517644 1.206682,-0.821645 1.917081,-1.032179 0.918458,-0.275929 1.840124,-0.560496 2.788536,-0.713211 1.293193,-0.191175 2.600071,-0.300289 3.908377,-0.251232 1.582658,0.08009 3.168436,0.230169 4.690682,0.69833 0.776761,0.225727 1.552807,0.470485 2.267063,0.857409 1.287706,0.696905 0.78231,0.427744 -2.595943,-1.521976 -0.124701,-0.07197 0.246838,0.148325 0.36889,0.224703 0.258064,0.161486 0.518149,0.320217 0.768675,0.49317 0.132006,0.09113 0.257842,0.190894 0.386763,0.286343 0.463002,0.349414 0.973627,0.670877 1.385721,1.082555 0.09445,0.09436 0.175077,0.201687 0.26648,0.298998 0.101433,0.10799 0.207899,0.211143 0.311849,0.316717 0.866171,0.887158 1.664512,1.831771 2.483233,2.762176 0.749128,0.92061 1.511398,1.830744 2.163834,2.824303 z" />
    <path
       style="fill:#000000;stroke:none;stroke-width:0.499999;stroke-linecap:round;stroke-linejoin:round;stroke-dasharray:none"
       id="path18"
       d="m 34.084429,32.868698 c -0.22547,0.03999 -0.44332,0.143684 -0.649359,0.245245 -0.284194,0.132672 -0.542555,0.276545 -0.742418,0.522366 -0.173879,0.330928 -0.140751,0.708335 -0.128982,1.069661 0.01095,0.104883 0.03164,0.437229 0.131098,0.497771 3.235601,1.969558 2.162866,1.694524 3.579466,2.039974 0.152988,0.03239 0.305946,-0.0034 0.458973,-0.01622 0.0467,-0.0039 0.09496,0.0019 0.1402,-0.01035 0.120941,-0.03268 0.187177,-0.09897 0.284469,-0.172937 0.0422,-0.03848 0.09053,-0.07117 0.126606,-0.115443 0.218229,-0.267793 0.345173,-0.709763 0.458147,-1.033949 0.150731,-0.354092 0.161452,-0.746302 0.154295,-1.125882 -0.1196,-1.55168 -2.305291,-2.313045 -3.658042,-2.506569 -0.08762,0.04109 -0.212365,-0.03364 -0.29864,-0.0016 -0.112091,0.0417 -0.196565,0.161962 -0.28162,0.240832 -0.104249,0.176453 -0.181706,0.370107 -0.236554,0.567454 0,0 3.465545,1.854523 3.465545,1.854523 v 0 c 0.01193,-0.11162 0.01881,-0.251881 0.103896,-0.333423 0.01831,-0.01249 0.0338,-0.03076 0.05493,-0.03746 0.02029,-0.0064 0.05377,0.04812 0.05635,0.04938 0.06921,0.03392 0.171445,0.0056 0.228383,0.0768 1.084506,0.766074 0.566044,0.39706 -3.190663,-1.865979 -0.02797,-0.01685 0.06725,-0.0028 0.09749,0.0096 0.09279,0.03776 0.159345,0.142584 0.182964,0.232682 0.09004,0.331547 0.06723,0.670894 -0.02296,1.000652 -0.09462,0.314095 -0.194694,0.685054 -0.492078,0.865301 -0.233368,0.05899 -0.478221,0.03303 -0.692721,-0.07974 -1.234205,-0.703845 1.357288,0.773406 3.101165,1.825413 0.02995,0.01807 -0.07098,-0.0024 -0.10401,-0.01381 -0.06221,-0.02167 -0.09783,-0.07275 -0.126019,-0.128487 -0.01804,-0.03566 -0.02903,-0.07446 -0.04354,-0.111691 -0.07058,-0.241991 -0.101481,-0.533929 0.0043,-0.769903 0.152077,-0.188574 0.386418,-0.284504 0.604808,-0.375375 0.209449,-0.06422 0.420418,-0.110353 0.637982,-0.07143 z" />
    <path
       style="fill:#000000;stroke:none;stroke-width:0.499999;stroke-linecap:round;stroke-linejoin:round;stroke-dasharray:none"
       id="path19"
       d="m 49.891592,35.574237 c -0.46846,0.05219 -0.932429,0.132659 -1.392198,0.23609 -0.234981,0.07494 -0.495644,0.121322 -0.715602,0.239678 -0.13548,0.0729 -0.24924,0.190151 -0.353933,0.300458 -0.108628,0.151837 -0.165955,0.325004 -0.159822,0.511665 0.01548,0.06148 0.0199,0.105135 0.06654,0.156623 0.03177,0.03507 0.06949,0.06546 0.110384,0.08928 4.129664,2.405311 2.151094,1.662224 3.844475,2.076702 0.238305,0.03562 0.493572,0.121994 0.720349,-0.0056 0.02196,-0.01236 0.286671,-0.218974 0.318387,-0.243604 0.253891,-0.228179 0.454602,-0.505722 0.628745,-0.79742 0.106995,-0.154281 0.187679,-0.320754 0.240914,-0.49998 -2.65e-4,-0.07928 0.07276,-0.230746 -0.01548,-0.281798 -3.445256,-1.993114 -2.140652,-2.181055 -3.550082,-1.953921 -0.04122,0.0013 -0.08317,-0.0037 -0.123666,0.0041 -0.06117,0.01177 -0.118412,0.03916 -0.178871,0.05419 -0.191456,0.04758 -0.404879,0.06528 -0.583648,0.156239 -0.06637,0.03377 -0.12283,0.08421 -0.184247,0.126317 -0.286907,0.281014 -0.457272,0.654921 -0.52845,1.046401 -0.04397,0.188886 0.02783,0.368652 0.04596,0.553379 0.365834,1.332693 2.296435,2.29227 3.645241,1.966634 0.01151,-0.0011 0.02305,-0.0024 0.03457,-0.0035 0,0 -3.217256,-2.331643 -3.217256,-2.331643 v 0 c -0.0096,-7.94e-4 -0.01913,-0.0019 -0.02869,-0.0028 -0.02381,-0.0079 -0.05161,-0.0155 -0.07144,-0.03202 -0.009,-0.0075 -0.03444,-0.03151 -0.02418,-0.02572 3.405775,1.922761 4.622503,1.567175 3.327805,1.932223 -0.01918,0.007 -0.03729,0.0236 -0.05752,0.02093 -0.06639,-0.0088 -0.188338,-0.233844 -0.195492,-0.292052 -0.02966,-0.207166 0.02143,-0.484119 0.170275,-0.642636 0.03525,-0.03755 0.08211,-0.06221 0.123158,-0.09331 0.306832,-0.126936 0.645655,-0.182472 0.962753,-0.05765 1.093406,0.841729 0.208751,0.155088 -3.257182,-1.859063 -0.01204,-0.007 0.02929,0.01206 0.04145,0.0053 0.07503,-0.04195 0.0444,-0.07229 0.125249,-0.06606 0.01185,-0.0024 0.02693,-0.01545 0.03557,-0.007 0.0231,0.02257 -0.08988,0.313576 -0.108916,0.342013 -0.133062,0.253606 -0.26684,0.506397 -0.51793,0.664708 -0.03818,0.02402 -0.07277,0.05506 -0.114546,0.07208 -0.201118,0.0819 -0.507582,-0.05207 -0.703403,-0.09299 -0.05841,-0.02013 -0.118506,-0.03594 -0.175238,-0.06042 -0.06228,-0.02687 -0.239401,-0.127532 -0.180872,-0.09324 1.058426,0.620069 2.120543,1.233818 3.180813,1.850728 -0.06984,-0.03904 -0.105908,-0.05775 -0.184277,-0.05138 -0.102556,-0.02003 -0.143299,0.01939 -0.09741,-0.120404 0.163862,-0.263523 0.504984,-0.336246 0.783252,-0.413991 0.500186,-0.09411 1.003363,-0.134707 1.509717,-0.0561 z" />
    <path
       style="fill:#ff0000;stroke:none;stroke-width:0.499999;stroke-linecap:round;stroke-linejoin:round;stroke-dasharray:none"
       id="path20"
       d="m 106.41172,10.72701 c -2.95315,0.115046 -5.87881,0.560179 -8.785866,1.069754 -3.63375,0.565441 -7.190396,1.529833 -10.587519,2.933795 -1.909363,0.944191 -3.380941,1.907539 -4.448553,3.810451 -0.196305,0.349894 -0.34012,0.72675 -0.510178,1.090126 -0.697473,1.815156 -1.004906,3.749642 -0.584581,5.67434 0.0883,0.404334 0.240149,0.792124 0.360222,1.188184 0.568294,1.699885 1.68419,3.111865 2.915016,4.386908 0.306726,0.317746 0.611589,0.64108 0.95705,0.916218 0.406636,0.323858 0.86087,0.582967 1.291305,0.87445 2.948392,1.61715 3.725219,2.301211 6.312707,3.182261 2.443524,0.832027 4.989022,1.270113 7.539667,1.60596 2.42002,0.292123 4.98443,0.213881 6.98655,-1.378998 0.5399,-0.429541 0.9867,-0.964571 1.48005,-1.446856 1.51399,-1.784466 1.51297,-1.684152 2.83017,-3.637753 0.39651,-0.588084 0.80297,-1.17271 1.13854,-1.797577 0.93628,-1.74349 1.46808,-3.647213 1.99348,-5.540477 0.40486,-1.678889 0.65822,-3.412656 0.59112,-5.143806 -0.012,-0.309935 -0.0159,-0.622766 -0.073,-0.927636 -0.0646,-0.345286 -0.19356,-0.675379 -0.29035,-1.013068 -0.6479,-1.582344 -1.64254,-2.989691 -2.99809,-4.033724 -1.26421,-0.706347 -2.49812,-1.4699 -3.79264,-2.119042 -0.17627,-0.08839 -1.27417,-0.163289 -1.41333,-0.172464 -0.97602,-0.06435 -1.89541,0.04882 -2.86373,0.170823 -1.76453,0.310201 -3.50304,0.724332 -5.232954,1.184448 -0.507343,0.12459 -1.01742,0.251641 -1.541369,0.271855 -0.127064,-0.02955 -0.182073,0.09905 -0.272905,0.165537 0,0 3.346648,2.144092 3.346648,2.144092 v 0 c 0.175,-0.103715 -0.0381,0.05127 0.1586,-0.01605 0.50269,-0.09458 0.99011,-0.247648 1.47842,-0.398344 1.65475,-0.534976 3.33163,-1.000828 5.06205,-1.222592 0.97348,-0.09065 1.91422,-0.159158 2.88961,-0.04771 1.67686,0.191604 3.4013,1.328744 -1.38212,-1.366946 0.39778,0.260658 0.68274,0.426781 1.04189,0.757835 0.93368,0.860627 1.64584,1.958576 2.17889,3.100935 0.0987,0.313165 0.22351,0.619257 0.29599,0.939496 0.42685,1.885834 0.0742,4.202808 -0.2372,6.07221 -0.34231,1.454584 -0.46229,2.169746 -1.00918,3.598299 -1.04703,2.734947 -2.74317,5.159031 -4.78025,7.246868 -1.27057,1.072558 -1.48711,1.440053 -2.9452,2.055329 -1.72306,0.72709 -3.626688,0.625374 -5.443384,0.463859 -2.531543,-0.307335 -5.028334,-0.761357 -7.434341,-1.63694 -0.60302,-0.219448 -1.262206,-1.117108 -1.778741,-0.736343 -0.471363,0.347469 0.978329,0.643853 1.467495,0.965779 -0.420044,-0.265409 -0.863298,-0.497223 -1.260128,-0.796226 -0.355544,-0.267894 -0.672121,-0.584856 -0.988486,-0.898052 -1.227354,-1.215062 -2.316374,-2.588233 -2.926643,-4.219202 -0.120484,-0.374382 -0.26983,-0.740677 -0.361456,-1.123148 -0.443373,-1.85079 -0.19373,-3.734352 0.470705,-5.494924 0.1628,-0.346647 0.300447,-0.706264 0.488405,-1.039942 0.960374,-1.704938 2.562108,-2.806291 4.269906,-3.675051 3.297285,-1.459327 6.774805,-2.420266 10.332378,-3.008685 3.06172,-0.487991 6.16187,-0.894695 9.26872,-0.650856 z"
       inkscape:export-filename="latex/figs/angryfaic.png"
       inkscape:export-xdpi="96"
       inkscape:export-ydpi="96" />
    <path
       style="fill:#ff0000;stroke:none;stroke-width:0.499999;stroke-linecap:round;stroke-linejoin:round;stroke-dasharray:none"
       id="path21"
       d="m 84.380201,7.0250478 c 1.200791,0.9926587 2.395943,1.9923085 3.560313,3.0275342 1.651212,1.396369 3.116765,2.9822 4.555416,4.590619 1.140015,1.309597 2.2279,2.664438 3.299253,4.030633 0.584007,0.718523 1.230022,1.383563 1.896931,2.024838 1.520838,1.4785 1.147116,0.902957 4.408236,2.355522 -0.0838,-0.954324 0.26853,-1.812947 0.64623,-2.675656 1.07706,-2.04006 2.89798,-3.513202 4.7085,-4.878615 1.92114,-1.385442 3.96216,-2.592289 5.96693,-3.850797 0.77237,-0.508909 1.54731,-1.014219 2.22746,-1.644515 0.16252,-0.1142303 0.28327,-0.1922964 0.39783,-0.3706049 0.0924,-0.05517 0.16681,-0.2109888 0.31097,-0.2561056 0.13535,-0.097035 0.20639,-0.2204148 0.36756,-0.2937851 0,0 -3.34036,-2.1607293 -3.34036,-2.1607293 v 0 c -0.12884,0.093297 -0.21867,0.2252353 -0.3578,0.2856206 -0.16401,0.1197314 -0.27714,0.2831524 -0.4224,0.4225907 -0.0741,0.1274006 -0.26447,0.163627 -0.323,0.3167292 -0.57231,0.666087 -1.2983,1.1652018 -1.99541,1.6902867 -1.95391,1.3417387 -3.96166,2.5976897 -5.94323,3.8978167 -1.83244,1.425887 -3.61518,3.016218 -4.865375,4.991466 -0.515263,1.025246 -0.254209,0.429673 -0.60851,1.397606 -0.128805,0.351883 -0.408146,0.832668 -0.268896,1.229008 1.196144,0.576581 2.392291,1.153163 3.588431,1.729744 -0.0713,-0.04003 -0.15604,-0.05421 -0.22424,-0.09928 C 101.7136,22.61885 101.5317,22.348033 101.28715,22.173212 100.58646,21.538217 99.929253,20.863313 99.290607,20.16604 98.17079,18.807822 97.054875,17.447287 95.937733,16.086851 94.452928,14.497435 93.013402,12.862476 91.354538,11.446824 90.270453,10.447914 89.15687,9.4730799 88.022979,8.5339358 Z" />
    <path
       style="fill:#ff0000;stroke:none;stroke-width:0.499999;stroke-linecap:round;stroke-linejoin:round;stroke-dasharray:none"
       id="path22"
       d="m 94.04569,22.802364 c -0.298887,-1.480831 -2.031331,-4.037763 -3.873064,-2.420808 -0.227436,0.183432 -0.383365,0.450987 -0.416036,0.740889 0.345361,2.166574 3.073839,3.345571 3.845798,1.550929 0.06935,-0.202744 0.120526,-0.465972 0.159851,-0.649189 -3.067952,-1.957467 -2.989744,-2.917687 -4.089522,-1.112593 -0.131543,0.268199 -0.226123,0.551 -0.288427,0.842388 0.361449,4.58619 3.539767,2.188956 4.597489,1.178499 0.421715,-0.369327 0.854501,-0.76436 1.0589,-1.298168 0.363834,-1.525865 -2.38502,-3.116306 -3.645747,-2.211446 -0.121039,0.172319 -0.06919,0.08972 -0.15903,0.24559 0,0 3.441038,1.985534 3.441038,1.985534 v 0 c 0.0097,-0.01712 0.01947,-0.03423 0.02922,-0.05135 0.0056,-5.83e-4 0.01122,-0.0012 0.01685,-0.0017 0.02762,-0.0064 0.106299,0.03748 0.08186,0.02311 -1.123047,-0.660651 -2.241118,-1.329727 -3.361679,-1.994591 0.06573,0.0226 0.09926,0.04817 0.1196,0.119546 -0.01654,0.469473 -0.611085,0.827723 -0.888556,1.137716 -0.238162,0.210282 -0.483619,0.439898 -0.791117,0.546824 -0.04661,0.01621 -0.189294,-0.0078 -0.146976,0.01762 3.288252,1.971794 4.456731,1.244179 3.274753,1.949699 -0.02847,0.02179 -0.0496,0.06702 -0.08542,0.06538 -0.05515,-0.0025 0.01431,-0.109595 0.02585,-0.163583 0.03056,-0.143217 0.07264,-0.283913 0.135027,-0.416779 0.997471,-1.771068 2.04306,-0.05487 -2.830671,-2.772269 -0.04996,0.203576 -0.02381,0.425784 -0.104907,0.624621 -0.01553,0.03824 -0.02874,0.07752 -0.04662,0.114728 -0.01111,0.02316 -0.01916,0.05093 -0.0401,0.06581 -0.0083,0.0059 -0.02312,-0.03219 -0.01418,-0.02723 3.920342,2.16834 4.695732,1.788371 3.312742,1.917786 -0.230193,0.02936 0.05655,-0.230762 0.14264,-0.276705 1.353253,-0.224088 -0.03055,0.01999 -3.342857,-1.884959 -0.0167,-0.0096 0.144047,-0.08242 0.226647,0.07088 0.01341,0.02488 0.08011,0.343001 0.08674,0.373728 z" />
    <path
       style="fill:#ff0000;stroke:none;stroke-width:0.499999;stroke-linecap:round;stroke-linejoin:round;stroke-dasharray:none"
       id="path23"
       d="m 104.37848,20.301206 c -0.28723,0.426353 -0.5465,0.906645 -0.63922,1.417392 -0.28868,1.618622 2.35136,2.473039 3.8237,2.123768 0.21163,-0.163008 0.38134,-0.326445 0.52316,-0.555716 0.14874,-0.200927 0.27906,-0.371022 0.34079,-0.616678 -0.071,-1.479485 -2.1905,-2.498632 -3.60644,-2.344248 -0.18583,-0.006 -0.28532,0.18611 -0.44052,0.288057 -0.14912,0.104529 -0.21654,0.322679 -0.25043,0.496829 -0.20247,1.692934 0.66015,0.861917 3.46831,2.459433 0.0743,0.02025 0.11128,0.01066 0.18348,-0.01422 0,0 -3.20385,-2.366221 -3.20385,-2.366221 v 0 c -0.0334,-0.0313 -0.064,-0.05773 -0.10634,-0.0768 1.11486,0.642557 2.22971,1.285113 3.34457,1.927669 -0.0236,0.0088 -0.0496,0.01278 -0.0707,0.02642 -0.0336,0.02166 -0.0523,0.06807 -0.091,0.07796 -0.0602,0.01539 0.0601,-0.190001 -0.002,-0.186468 -0.004,-0.09016 0.004,-0.165675 0.0806,-0.204375 0.37615,-0.269445 0.0309,-0.07002 0.25521,-0.01799 1.15845,0.932081 -4.65661,-2.625179 -3.11271,-1.850555 0.1466,-0.0046 -0.2039,0.340857 -0.228,0.411539 -0.0615,0.111887 -0.21167,0.301157 -0.34875,0.284495 -0.1671,0.03718 -0.3308,0.03082 -0.30543,0.04669 1.09806,0.686943 2.21853,1.337375 3.32779,2.006063 -0.079,-0.0036 -0.0432,0.01309 -0.0721,-0.09418 -0.0295,-0.432921 0.22089,-0.860336 0.50393,-1.171246 z" />
    <path
       style="fill:#ff0000;stroke:none;stroke-width:0.499999;stroke-linecap:round;stroke-linejoin:round;stroke-dasharray:none"
       id="path24"
       d="m 91.044542,31.76611 c -0.04881,-0.279149 -0.01106,-0.548582 0.0716,-0.817107 0.04258,-0.186137 0.155582,-0.336259 0.250446,-0.496634 0.232923,-0.393779 0.01035,-0.07198 0.324729,-0.492157 0.604911,-0.803391 1.318553,-1.277617 2.177822,-1.769575 0.526378,-0.278903 1.088853,-0.474443 1.650267,-0.66779 0.213098,-0.07339 0.423503,-0.155419 0.639953,-0.218236 0.499086,-0.144849 0.915787,-0.211865 1.426035,-0.30937 0.240647,-0.03143 0.481211,-0.06348 0.721937,-0.0943 0.696357,-0.08918 0.975985,-0.133964 1.694169,-0.169071 0.78922,-0.03858 1.58072,-0.01032 2.37016,0.0027 0.95492,0.04053 1.912,0.01519 2.86543,0.09027 0.25159,0.04182 0.51401,0.03415 0.75631,0.12387 0.049,0.01815 0.18589,0.09533 0.1404,0.06965 -3.26816,-1.845075 -4.12081,-2.538897 -3.03569,-1.671565 0.43391,0.441558 0.67169,1.023069 0.91976,1.579535 0.27386,0.643041 0.38479,1.325171 0.45517,2.014416 0.0353,0.384561 0.0437,0.773271 -2.7e-4,1.157378 0.006,0.109897 -0.038,0.216688 -0.0399,0.325064 -0.0267,0.07038 -0.0312,0.134242 -0.0229,0.206663 0,0 3.67336,1.531083 3.67336,1.531083 v 0 c -0.0496,0.01164 -0.0791,0.03004 -0.11196,0.07304 0.002,-0.122282 -0.0358,-0.244472 -0.0299,-0.367416 -0.0399,-0.417034 -0.0455,-0.836263 -0.0864,-1.253315 -0.10034,-0.732415 -0.29902,-1.450965 -0.53157,-2.151518 -0.17712,-0.563708 -0.35351,-1.131882 -0.6821,-1.62919 -1.09144,-1.578787 -2.6964,-2.265094 -4.38967,-2.193934 -0.38122,0.0023 -0.76103,0.01497 -1.14204,0.0256 -0.33912,0.0095 -0.67865,0.0027 -1.01763,0.01632 -0.170364,0.0069 -0.340205,0.02334 -0.510309,0.03502 -0.731414,0.04192 -1.461362,0.104652 -2.193123,0.140802 -0.424662,0.02098 -1.417047,0.04519 -1.853509,0.0926 -0.238276,0.02588 -0.472697,0.07963 -0.709047,0.119446 -1.039042,0.195353 -0.462949,0.07257 -1.468892,0.317897 -0.245915,0.05997 -0.49548,0.106267 -0.738148,0.178261 -0.58714,0.174192 -1.124085,0.478497 -1.692018,0.700978 -0.180867,0.08992 -0.368711,0.166991 -0.5426,0.269753 -0.145386,0.08591 -0.275188,0.195823 -0.412226,0.294508 -0.512596,0.369125 -1.036683,0.742682 -1.462918,1.212011 -0.0815,0.0824 -0.160867,0.16696 -0.244483,0.247211 -0.07315,0.0702 -0.155784,0.130474 -0.225616,0.203972 -0.158858,0.167196 -0.238564,0.398698 -0.320127,0.60846 -0.04288,0.171796 -0.07069,0.347382 -0.119303,0.517668 -0.01659,0.05814 -0.04211,0.113665 -0.05612,0.172479 -0.01408,0.05915 -0.0042,0.122208 -0.0181,0.181501 z" />
    <circle
       style="fill:#000000;stroke:none;stroke-width:0.7;stroke-linecap:round;stroke-linejoin:round;stroke-dasharray:none"
       id="path25"
       cx="84.180145"
       cy="62.459469"
       r="3.0028591" />
    <circle
       style="fill:#000000;stroke:none;stroke-width:0.7;stroke-linecap:round;stroke-linejoin:round;stroke-dasharray:none"
       id="path25-4"
       cx="98.617538"
       cy="62.459469"
       r="3.0028591" />
  </g>
</svg>
